<?xml version="1.0" standalone="no"?>
<!DOCTYPE svg PUBLIC "-//W3C//DTD SVG 20010904//EN"
 "http://www.w3.org/TR/2001/REC-SVG-20010904/DTD/svg10.dtd">
<svg version="1.0" xmlns="http://www.w3.org/2000/svg"
 width="512.000000pt" height="512.000000pt" viewBox="0 0 512.000000 512.000000"
 preserveAspectRatio="xMidYMid meet">
<metadata>
Created by potrace 1.11, written by Peter Selinger 2001-2013
</metadata>
<g transform="translate(0.000000,512.000000) scale(0.100000,-0.100000)"
fill="#000000" stroke="none">
<path d="M221 5103 c-85 -29 -152 -89 -193 -171 l-23 -47 0 -2325 0 -2325 25
-50 c31 -61 97 -126 159 -157 l46 -23 2325 0 2325 0 49 25 c63 31 127 96 157
158 l24 47 0 2325 0 2325 -25 49 c-45 88 -110 143 -199 170 -50 15 -264 16
-2340 16 -2038 -1 -2291 -3 -2330 -17z"/>
</g>
</svg>
